<svg viewBox="0 0 60 60" xmlns="http://www.w3.org/2000/svg"><g fill-rule="nonzero" transform="translate(30 30) scale(0.8472) translate(-29.95 -32.55) rotate(-45 30 30)"><path d="m43.63 13.65s2.12 -5 6.36 -6.36c0 0 2.12 0.71 2.83 4.24 -2.597 0.955 -4.826 2.704 -6.37 5l-2.45 -0.46z" fill="#603e26"/><path d="m56 26 -22 -22c-4.043 -4.032 -10.587 -4.032 -14.63 0l-4.37 4.42c-0.389 0.388 -0.608 0.915 -0.608 1.465s0.219 1.077 0.608 1.465l1.47 1.46 -9.54 9.52c-6.59 6.59 -7.1 14.53 -4.39 20.49 3.66 8 2.2 12.44 2.2 12.44s4.39 -1.46 12.44 2.2c6 2.71 13.9 2.2 20.49 -4.39l9.52 -9.52 1.46 1.45c0.388 0.389 0.915 0.608 1.465 0.608s1.077 -0.219 1.465 -0.608l4.42 -4.37c4.032 -4.043 4.032 -10.587 0 -14.63z" fill="#a56a43"/><path d="m56 26 -22 -22c-4.043 -4.032 -10.587 -4.032 -14.63 0l-4.37 4.42c-0.389 0.388 -0.608 0.915 -0.608 1.465s0.219 1.077 0.608 1.465l33.65 33.65c0.388 0.389 0.915 0.608 1.465 0.608s1.077 -0.219 1.465 -0.608l4.42 -4.37c4.032 -4.043 4.032 -10.587 0 -14.63z" fill="#805333"/><path d="m6.31 42.11c-0.393 -0.001 -0.749 -0.232 -0.91 -0.59 -2.59 -5.69 -1.19 -12 3.75 -17l2.2 -2.2c0.39 -0.388 1.02 -0.388 1.41 0 0.189 0.188 0.296 0.443 0.296 0.71s-0.106 0.522 -0.296 0.71l-2.19 2.26c-4.33 4.29 -5.57 9.79 -3.35 14.7 0.212 0.497 -0.009 1.073 -0.5 1.3 -0.127 0.066 -0.267 0.103 -0.41 0.11z" fill="#cb8252"/><g fill="#603e26"><circle cx="37.97" cy="17.79" r="1"/><circle cx="35.14" cy="12.13" r="1"/><circle cx="31.61" cy="19.91" r="1"/><circle cx="35.14" cy="24.86" r="1"/><circle cx="29.48" cy="14.96" r="1"/><circle cx="23.12" cy="12.84" r="1"/><circle cx="30.9" cy="7.89" r="1"/><circle cx="25.24" cy="6.47" r="1"/><circle cx="42.21" cy="22.03" r="1"/><circle cx="47.87" cy="24.86" r="1"/><circle cx="40.09" cy="28.39" r="1"/><circle cx="45.04" cy="30.52" r="1"/><circle cx="47.16" cy="36.88" r="1"/><circle cx="52.11" cy="29.1" r="1"/><circle cx="53.53" cy="34.76" r="1"/></g><path d="m15 21.13c-0.262 -0.001 -0.514 -0.105 -0.7 -0.29 -0.388 -0.39 -0.388 -1.02 0 -1.41l1.44 -1.43c0.39 -0.388 1.02 -0.388 1.41 0 0.189 0.188 0.296 0.443 0.296 0.71s-0.106 0.522 -0.296 0.71l-1.46 1.46c-0.19 0.168 -0.437 0.257 -0.69 0.25z" fill="#cb8252"/></g></svg>